<?xml version="1.0" encoding="UTF-8"?>
<svg width="50px" height="50px" viewBox="0 0 50 50" version="1.1" xmlns="http://www.w3.org/2000/svg" xmlns:xlink="http://www.w3.org/1999/xlink">
    <!-- Generator: Sketch 52.6 (67491) - http://www.bohemiancoding.com/sketch -->
    <title>ScrollToTopArrow</title>
    <desc>Created with Sketch.</desc>
    <g id="ScrollToTopArrow" stroke="none" stroke-width="1" fill="none" fill-rule="evenodd">
        <path d="M25,50 C11.1928813,50 0,38.8071187 0,25 C0,11.1928813 11.1928813,0 25,0 C38.8071187,0 50,11.1928813 50,25 C50,38.8071187 38.8071187,50 25,50 Z M14.40625,30.40625 C15.1829004,31.1829004 16.4420996,31.1829004 17.21875,30.40625 L25,22.625 L32.78125,30.40625 C33.5579004,31.1829004 34.8170996,31.1829004 35.59375,30.40625 C36.3704004,29.6295996 36.3704004,28.3704004 35.59375,27.59375 L25,17 L14.40625,27.59375 C13.6295996,28.3704004 13.6295996,29.6295996 14.40625,30.40625 Z" id="Combined-Shape" fill="#000000"></path>
    </g>
</svg>