<?xml version="1.0" encoding="UTF-8"?>
<svg width="42px" height="42px" viewBox="0 0 42 42" version="1.1" xmlns="http://www.w3.org/2000/svg" xmlns:xlink="http://www.w3.org/1999/xlink">
    <!-- Generator: Sketch 52.6 (67491) - http://www.bohemiancoding.com/sketch -->
    <title>UN SDG Logo</title>
    <desc>Created with Sketch.</desc>
    <g id="UN-SDG-Logo" stroke="none" stroke-width="1" fill="none" fill-rule="evenodd">
        <g id="Group-35">
            <path d="M10.6633,14.829 C11.1793,13.952 11.8053,13.148 12.5233,12.436 L6.4233,5.747 C4.8893,7.214 3.5803,8.914 2.5513,10.788 L10.6633,14.829 Z" id="Fill-1" fill="#5FBB46"></path>
            <path d="M25.6159,10.1039 C26.5399,10.5269 27.3989,11.0669 28.1739,11.7069 L34.2909,5.0279 C32.6789,3.6389 30.8529,2.4929 28.8689,1.6459 L25.6159,10.1039 Z" id="Fill-3" fill="#E5B733"></path>
            <path d="M39.6242,12.1151 L31.5172,16.1561 C31.9042,17.0601 32.1792,18.0201 32.3292,19.0211 L41.3472,18.1691 C41.0812,16.0341 40.4902,13.9991 39.6242,12.1151" id="Fill-5" fill="#C5212F"></path>
            <path d="M30.9353,14.9847 L39.0413,10.9437 C38.0373,9.0777 36.7563,7.3827 35.2533,5.9147 L29.1363,12.5917 C29.8333,13.3067 30.4393,14.1107 30.9353,14.9847" id="Fill-7" fill="#4B9F45"></path>
            <path d="M9.052,20.746 C9.052,20.563 9.058,20.381 9.066,20.2 L0.046,19.392 C0.017,19.84 0,20.291 0,20.746 C0,22.476 0.215,24.157 0.614,25.763 L9.326,23.264 C9.148,22.452 9.052,21.61 9.052,20.746" id="Fill-9" fill="#427F44"></path>
            <path d="M29.8,28.1595 C29.159,28.9395 28.419,29.6355 27.6,30.2285 L32.363,37.9405 C34.13,36.7425 35.704,35.2795 37.027,33.6085 L29.8,28.1595 Z" id="Fill-11" fill="#F9C416"></path>
            <path d="M32.4548,20.746 C32.4548,21.6 32.3628,22.433 32.1868,23.235 L40.8978,25.738 C41.2948,24.138 41.5068,22.466 41.5068,20.746 C41.5068,20.318 41.4928,19.894 41.4658,19.472 L32.4468,20.324 C32.4518,20.465 32.4548,20.605 32.4548,20.746" id="Fill-13" fill="#EF412C"></path>
            <path d="M11.8527,28.3324 L4.6427,33.8124 C5.9837,35.4634 7.5717,36.9024 9.3517,38.0774 L14.1127,30.3744 C13.2747,29.7944 12.5137,29.1064 11.8527,28.3324" id="Fill-15" fill="#F99F27"></path>
            <path d="M9.1984,18.8983 C9.3594,17.8793 9.6554,16.9053 10.0624,15.9923 L1.9584,11.9553 C1.0634,13.8603 0.4494,15.9233 0.1694,18.0883 L9.1984,18.8983 Z" id="Fill-17" fill="#1A97D4"></path>
            <path d="M31.2551,38.6381 L26.4991,30.9371 C25.6351,31.4251 24.7051,31.8071 23.7241,32.0641 L25.4021,40.9731 C27.4901,40.4931 29.4591,39.6971 31.2551,38.6381" id="Fill-19" fill="#A21C44"></path>
            <path d="M31.84,24.496 C31.524,25.423 31.098,26.297 30.574,27.103 L37.807,32.559 C38.981,30.87 39.91,29 40.544,26.997 L31.84,24.496 Z" id="Fill-21" fill="#28BDE2"></path>
            <path d="M22.4411,32.3246 C21.8911,32.4046 21.3271,32.4476 20.7531,32.4476 C20.2931,32.4476 19.8381,32.4186 19.3911,32.3666 L17.7141,41.2756 C18.7071,41.4216 19.7211,41.4986 20.7531,41.4986 C21.8991,41.4986 23.0231,41.4046 24.1181,41.2256 L22.4411,32.3246 Z" id="Fill-23" fill="#F26A2C"></path>
            <path d="M21.5012,9.0677 C22.5062,9.1327 23.4772,9.3237 24.3972,9.6267 L27.6502,1.1717 C25.7142,0.4877 23.6502,0.0827 21.5012,0.0077 L21.5012,9.0677 Z" id="Fill-25" fill="#E8253C"></path>
            <path d="M18.1018,32.1444 C17.0878,31.9084 16.1238,31.5394 15.2298,31.0584 L10.4648,38.7644 C12.2978,39.8144 14.3018,40.5904 16.4258,41.0434 L18.1018,32.1444 Z" id="Fill-27" fill="#DD1768"></path>
            <path d="M17.237,9.5848 C18.177,9.2878 19.168,9.1068 20.193,9.0588 L20.193,-0.0002 C18.015,0.0578 15.923,0.4548 13.961,1.1358 L17.237,9.5848 Z" id="Fill-29" fill="#1A496B"></path>
            <path d="M11.0593,27.2914 C10.4843,26.4424 10.0153,25.5134 9.6793,24.5244 L0.9733,27.0224 C1.6323,29.0994 2.6093,31.0334 3.8483,32.7714 L11.0593,27.2914 Z" id="Fill-31" fill="#C7982D"></path>
            <path d="M13.5031,11.5677 C14.2681,10.9617 15.1101,10.4507 16.0121,10.0497 L12.7391,1.6037 C10.7891,2.4227 8.9921,3.5307 7.3991,4.8737 L13.5031,11.5677 Z" id="Fill-33" fill="#03699D"></path>
        </g>
    </g>
</svg>